<?xml version="1.0" standalone="no"?>
<!DOCTYPE svg PUBLIC "-//W3C//DTD SVG 20010904//EN"
 "http://www.w3.org/TR/2001/REC-SVG-20010904/DTD/svg10.dtd">
<svg version="1.0" xmlns="http://www.w3.org/2000/svg"
 width="176.000000pt" height="226.000000pt" viewBox="0 0 176.000000 226.000000"
 preserveAspectRatio="xMidYMid meet">

<g transform="translate(0.000000,226.000000) scale(0.100000,-0.100000)"
fill="#000000" stroke="none">
<path d="M806 2077 c-14 -14 -26 -35 -26 -46 0 -32 18 -71 37 -78 83 -31 315
-238 367 -326 158 -268 197 -396 197 -637 -1 -165 -22 -246 -92 -351 -79 -118
-201 -182 -341 -179 -136 3 -147 5 -263 60 -95 45 -186 117 -231 183 -91 132
-112 327 -51 461 42 92 100 127 183 111 l37 -6 -43 -22 c-35 -18 -46 -30 -58
-66 -42 -127 101 -258 226 -205 145 60 161 252 31 384 -82 84 -228 113 -343
68 -81 -30 -137 -84 -179 -170 -138 -285 -31 -662 243 -850 87 -59 144 -85
248 -109 181 -43 253 -43 392 3 193 63 347 250 396 481 30 146 13 410 -38 575
-23 74 -96 234 -137 297 -31 48 -131 176 -180 228 -78 84 -257 207 -312 214
-31 5 -42 1 -63 -20z"/>
</g>
</svg>
